<?xml version="1.0" encoding="utf-8"?>
<!-- Generator: Adobe Illustrator 19.0.0, SVG Export Plug-In . SVG Version: 6.00 Build 0)  -->
<svg version="1.1" id="Layer_1" xmlns="http://www.w3.org/2000/svg" xmlns:xlink="http://www.w3.org/1999/xlink" x="0px" y="0px"
	 viewBox="0 0 622 310" style="enable-background:new 0 0 622 310;" xml:space="preserve">
<style type="text/css">
	.st0{fill:#FFFFFF;}
	.st1{fill:#56BF98;}
</style>
<g id="XMLID_1_">
	<g id="XMLID_26_">
		<polygon id="XMLID_27_" class="st0" points="120.6,125.3 120.6,143.7 157.2,143.7 157.2,160.3 120.6,160.3 120.6,201.2 
			103.3,201.2 103.3,108.8 163.3,108.8 163.3,125.3 		"/>
	</g>
	<g id="XMLID_20_">
		<path id="XMLID_21_" class="st0" d="M220.1,108.8h-16.9l-35.1,92.4h18.4l6.9-18.1H230l6.9,18.1h18.4L220.1,108.8z M199.7,166.6
			l12-31.6l12,31.6H199.7z"/>
	</g>
	<g id="XMLID_18_">
		<path id="XMLID_19_" class="st0" d="M340.8,172.1L356,180l-2.8,3.7c-4.3,5.7-9.8,10.4-16.3,13.8c-6.6,3.5-13.9,5.2-21.7,5.2
			c-6.5,0-12.8-1.3-18.5-3.8c-5.7-2.5-10.8-5.9-15.2-10.3c-4.3-4.4-7.7-9.5-10.2-15.2s-3.7-12-3.7-18.5c0-6.5,1.2-12.7,3.7-18.5
			c2.4-5.8,5.9-10.9,10.2-15.2c4.3-4.4,9.4-7.8,15.2-10.3c5.8-2.5,12-3.8,18.5-3.8c7.8,0,15.1,1.8,21.7,5.3
			c6.5,3.4,12,8.1,16.3,13.8l2.8,3.8l-15.2,7.9l-2.2-2.8c-2.7-3.5-6.2-6.3-10.3-8.3c-4.1-2.1-8.5-3.1-13.1-3.1
			c-4.2,0-8.1,0.8-11.7,2.4c-3.7,1.6-6.9,3.9-9.7,6.8c-2.8,2.9-5,6.2-6.5,10c-1.5,3.8-2.3,7.8-2.3,12.1c0,4.3,0.8,8.4,2.4,12.2
			c1.6,3.8,3.8,7.1,6.6,10c2.8,2.8,6.1,5.1,9.7,6.7c3.6,1.6,7.5,2.4,11.6,2.4c4.7,0,9.2-1,13.2-3.1c4.1-2.1,7.6-4.9,10.2-8.3
			L340.8,172.1z"/>
	</g>
	<g id="XMLID_16_">
		<rect id="XMLID_17_" x="381.2" y="108.8" class="st0" width="17.3" height="92.4"/>
	</g>
	<g id="XMLID_9_">
		<path id="XMLID_11_" class="st1" d="M515.1,136.5c-2.4-5.7-5.9-10.8-10.2-15.2c-4.4-4.4-9.5-7.8-15.2-10.3
			c-5.8-2.5-12-3.8-18.6-3.8c-6.5,0-12.8,1.3-18.5,3.8c-5.7,2.5-10.8,5.9-15.2,10.3c-4.3,4.4-7.8,9.5-10.2,15.2
			c-2.4,5.8-3.7,12-3.7,18.5c0,6.5,1.3,12.8,3.7,18.5c2.5,5.7,5.9,10.8,10.2,15.2c4.3,4.4,9.4,7.8,15.2,10.3
			c5.8,2.5,12,3.8,18.5,3.8c6.6,0,12.8-1.3,18.6-3.8c5.7-2.5,10.8-5.9,15.2-10.3c4.3-4.4,7.7-9.5,10.2-15.2c2.4-5.7,3.7-12,3.7-18.5
			C518.7,148.5,517.5,142.3,515.1,136.5z M501.4,155c0,4.2-0.8,8.3-2.4,12.1c-1.6,3.8-3.8,7.1-6.6,10c-2.8,2.9-6.1,5.1-9.7,6.8
			c-7.2,3.2-16.2,3.2-23.4,0c-3.7-1.6-6.9-3.8-9.7-6.7c-2.8-2.9-5-6.2-6.6-10c-1.6-3.8-2.4-7.8-2.4-12.2c0-4.2,0.8-8.3,2.4-12
			c1.6-3.8,3.8-7.1,6.6-10c2.8-2.9,6.1-5.1,9.7-6.8c3.6-1.6,7.5-2.4,11.7-2.4c4.1,0,8.1,0.8,11.7,2.4c3.7,1.6,6.9,3.9,9.7,6.7
			c2.8,2.9,5,6.2,6.6,10C500.7,146.6,501.4,150.7,501.4,155z"/>
	</g>
</g>
</svg>
